<svg version="1.0" width="1024.000000pt" height="1024.000000pt" viewBox="0 0 1024.000000 1024.000000"
    preserveAspectRatio="xMidYMid meet" id="svg18" sodipodi:docname="foob_tail.svg"
    inkscape:version="1.2.2 (b0a8486541, 2022-12-01)" xmlns:inkscape="http://www.inkscape.org/namespaces/inkscape"
    xmlns:sodipodi="http://sodipodi.sourceforge.net/DTD/sodipodi-0.dtd" xmlns="http://www.w3.org/2000/svg"
    xmlns:svg="http://www.w3.org/2000/svg">
    <defs id="defs22" />
    <sodipodi:namedview id="namedview20" pagecolor="#ffffff" bordercolor="#000000" borderopacity="0.25"
        inkscape:showpageshadow="2" inkscape:pageopacity="0.0" inkscape:pagecheckerboard="0"
        inkscape:deskcolor="#d1d1d1" inkscape:document-units="pt" showgrid="false" inkscape:zoom="0.47180733"
        inkscape:cx="944.24137" inkscape:cy="538.35535" inkscape:window-width="1920" inkscape:window-height="1131"
        inkscape:window-x="0" inkscape:window-y="32" inkscape:window-maximized="1" inkscape:current-layer="layer1" />
    <g inkscape:groupmode="layer" id="layer1" inkscape:label="Layer 1" style="display:inline"
        sodipodi:insensitive="true">
        <path style="display:inline;fill:#ffffff;stroke-width:0.75"
            d="m 261.70387,71.12897 56.84094,195.33599 -66.08809,285.76458 -7.52796,7.73083 -17.10789,94.58105 1.80245,72.97746 12.11099,61.01237 24.18334,51.4059 37.88142,48.75247 26.12288,19.71855 38.79896,22.64205 81.19038,31.98428 69.40742,14.4672 52.72187,-2.3556 34.11073,-11.7576 52.14243,-26.23073 35.10476,-28.48267 52.26184,-53.385 21.55876,-32.44388 35.06355,-65.21092 18.05857,-61.31521 6.34875,-47.41466 -0.92084,-68.72353 -10.98143,-52.3935 -13.69073,-49.22963 -33.06809,-82.022 L 739.62939,335.66701 713.39314,306.39393 499.20368,135.0009 382.92772,101.55373 Z"
            id="path763" />
        <path style="fill:#ffffff;stroke-width:1.44633"
            d="m 589.67105,396.43501 c -1.75184,-1.91104 -7.31539,-11.02308 -12.36343,-20.24897 -5.04805,-9.22589 -9.60398,-17.02913 -10.1243,-17.34054 -0.52032,-0.3114 -15.26468,4.66827 -32.76524,11.06592 -18.0313,6.59167 -35.02455,11.92153 -39.21636,12.30002 -6.5139,0.58817 -7.67961,0.26465 -9.76271,-2.7094 -1.30106,-1.85752 -2.36556,-5.20667 -2.36556,-7.44256 0,-6.67048 3.7378,-13.31657 32.05966,-57.00462 7.82255,-12.06671 14.22282,-22.73502 14.22282,-23.70735 0,-0.97232 -5.44233,-11.27583 -12.09406,-22.89667 -21.9049,-38.2687 -22.2471,-39.15399 -17.37337,-44.94608 2.02987,-2.41236 5.09521,-4.38612 6.81186,-4.38612 1.71665,0 14.58912,5.53221 28.60549,12.29379 14.01637,6.76158 25.85202,12.29378 26.30144,12.29378 0.44942,0 4.8931,-5.69491 9.87483,-12.65536 20.12008,-28.11167 34.69196,-46.34926 37.65156,-47.12322 4.44067,-1.16126 11.13553,2.77315 12.24573,7.19654 0.85297,3.39849 -3.01971,68.38029 -4.59903,77.16962 -0.58962,3.28143 0.81764,4.45921 15.21706,12.73562 8.72672,5.01589 20.44309,12.70052 26.03636,17.07696 8.37896,6.55609 10.16959,8.68706 10.16959,12.10256 0,9.22056 -11.92092,17.22977 -40.12781,26.96033 l -16.26341,5.6104 -0.0971,5.06215 c -0.0534,2.78418 -0.91521,14.31783 -1.91513,25.63034 -1.42907,16.16757 -2.38626,21.19608 -4.47384,23.50283 -3.77855,4.17524 -11.57926,3.90618 -15.65507,-0.53997 z m -54.29506,-46.46198 c 12.11036,-4.3962 22.23602,-8.21028 22.50148,-8.47574 1.13078,-1.13077 -15.04057,-27.64418 -16.86105,-27.64418 -1.10226,0 -7.47825,8.13559 -14.16887,18.07909 -13.85494,20.59102 -16.97618,26.0339 -14.92928,26.0339 0.79138,0 11.34736,-3.59688 23.45772,-7.99307 z m 56.17203,2.93093 c 0,-1.19323 -0.65084,-2.1695 -1.44632,-2.1695 -0.79548,0 -1.44633,0.97627 -1.44633,2.1695 0,1.19322 0.65085,2.16949 1.44633,2.16949 0.79548,0 1.44632,-0.97627 1.44632,-2.16949 z m -3.76344,-21.16766 c 1.98237,-0.90323 4.02687,-2.69306 4.54333,-3.9774 1.44051,-3.58229 3.62542,-44.07977 2.43684,-45.16697 -0.57598,-0.52685 -6.49041,-3.32716 -13.14319,-6.2229 -13.70399,-5.96491 -13.11764,-6.11952 -21.17839,5.58433 l -5.3238,7.72992 3.09266,6.99146 c 1.70096,3.84531 6.67859,13.67674 11.0614,21.84763 8.53187,15.90596 10.11791,17.03815 18.51115,13.21393 z m 42.57721,-13.47733 c 15.22588,-4.69048 18.22322,-6.2452 16.35658,-8.48413 -0.78276,-0.93887 -7.66469,-4.96128 -15.29315,-8.93868 -10.86372,-5.66422 -14.13764,-6.81235 -15.10496,-5.29715 -1.36137,2.13242 -3.2385,24.838 -2.19325,26.52926 0.36019,0.5828 1.44761,0.79981 2.41648,0.48226 0.96888,-0.31756 7.18711,-2.24876 13.8183,-4.29156 z m -83.00877,-51.73333 c 3.38859,-4.83789 2.84315,-6.04597 -4.29566,-9.51427 -10.81915,-5.25635 -11.58419,-4.35786 -5.05532,5.93711 4.85666,7.65815 6.14684,8.1517 9.35098,3.57716 z m 50.61288,-13.77988 c 0.47454,-5.36949 1.15196,-12.90006 1.50536,-16.7346 0.46433,-5.03806 0.15665,-6.81031 -1.10926,-6.38937 -1.94423,0.6465 -16.93827,21.01703 -16.93827,23.01191 0,1.2857 12.72631,9.87477 14.63132,9.87477 0.57643,0 1.43631,-4.39322 1.91085,-9.76271 z"
            id="path268" transform="scale(0.75)" />
        <path style="display:inline;fill:#ffffff;stroke-width:1.44633"
            d="m 689.17514,1295.0743 c -37.28154,-4.9662 -75.27331,-13.236 -102.68926,-22.3527 -39.34331,-13.083 -106.24815,-42.3043 -127.81161,-55.8229 -70.25672,-44.0455 -115.83538,-108.9734 -137.44343,-195.7914 -9.66628,-38.83761 -12.25862,-66.35057 -11.32278,-120.17049 0.57857,-33.27356 1.22048,-42.0756 4.4209,-60.62042 6.01762,-34.8691 16.98088,-89.57279 18.20198,-90.82289 0.61813,-0.63281 4.28682,7.6873 8.15264,18.48914 8.57702,23.96583 13.63583,34.59036 16.74243,35.16247 2.87896,0.53021 3.67935,-0.86788 36.68229,-64.07415 45.69991,-87.52319 63.96566,-120.40165 65.76283,-118.37349 0.59624,0.67289 4.48221,14.24038 8.63545,30.14999 14.85668,56.91052 39.50903,146.38648 45.0484,163.50358 6.00231,18.54771 9.36111,23.79585 15.22922,23.79585 8.89701,0 4.36227,7.27781 78.06662,-125.28903 29.68766,-53.39712 61.25758,-109.32451 70.15538,-124.28311 l 16.17782,-27.19745 2.5147,4.96107 c 1.38308,2.72859 11.74243,29.69327 23.02076,59.92152 37.13605,99.53226 38.76414,103.41243 43.391,103.41243 4.53794,0 10.02897,-8.16331 21.87121,-32.51514 17.50057,-35.98734 72.2443,-160.38046 72.2443,-164.15931 0,-0.80985 0.5899,-1.47245 1.31091,-1.47245 2.02282,0 18.226,18.00182 38.76715,43.07053 26.09061,31.84132 33.18619,41.35785 38.1113,51.11443 4.5598,9.03294 8.5694,11.05568 11.4066,5.75432 2.77606,-5.18709 10.74473,-64.95324 19.59231,-146.94493 2.06012,-19.09152 4.20673,-37.57171 4.77023,-41.06708 l 1.02455,-6.35522 12.02915,20.09533 c 15.50596,25.90354 34.79871,64.17644 48.43271,96.08097 55.631,130.1797 76.3076,259.43759 58.1786,363.69798 -10.8267,62.26463 -38.743,127.18695 -83.9586,195.25425 -17.43589,26.248 -28.21925,39.4772 -50.88011,62.4206 -57.26911,57.9834 -120.08604,98.3754 -182.0652,117.07 -11.96044,3.6076 -15.11345,3.9208 -43.27327,4.2987 -16.70509,0.2242 -34.92882,-0.1992 -40.49718,-0.941 z"
            id="path266" transform="scale(0.75)" />
        <g transform="matrix(0.1,0,0,-0.1,0,1024)" fill="#000000" stroke="none" id="g16">
            <path
                d="m 2055,9906 c -19,-29 -13,-46 26,-75 87,-64 207,-256 338,-537 96,-209 376,-837 424,-954 74,-178 190,-560 175,-575 -2,-2 -35,39 -73,92 -309,423 -337,455 -364,405 -8,-15 -2,-41 24,-115 62,-173 106,-382 137,-642 17,-144 17,-885 0,-1085 -44,-512 -114,-905 -296,-1650 -83,-341 -130,-582 -181,-920 -39,-258 -37,-675 5,-960 93,-640 322,-1127 714,-1515 199,-198 421,-354 660,-462 200,-90 596,-251 738,-298 250,-83 729,-175 913,-175 29,0 55,-3 59,-7 4,-4 -28,-18 -71,-30 -91,-27 -80,-26 212,16 322,47 371,58 495,107 155,63 404,187 521,261 313,196 711,549 930,823 270,337 562,870 694,1265 248,739 226,1589 -66,2551 -248,818 -623,1534 -1103,2103 -119,142 -352,376 -522,525 -384,337 -760,595 -1169,801 -405,205 -688,327 -1145,495 -744,274 -1341,453 -1807,544 -219,43 -247,45 -268,12 z M 4645,8845 c 31,-30 31,-46 5,-385 -11,-140 -20,-256 -20,-256 0,-1 54,-32 120,-69 65,-37 142,-86 169,-109 27,-22 61,-49 75,-59 35,-24 35,-75 2,-114 -45,-53 -107,-87 -255,-138 l -146,-50 -12,-175 c -7,-96 -15,-185 -18,-197 -9,-37 -45,-63 -86,-63 -47,0 -68,24 -139,157 -29,54 -61,112 -71,129 l -19,32 -163,-60 c -380,-140 -380,-140 -431,-117 -31,15 -50,60 -42,100 8,40 88,175 236,398 66,100 120,183 120,186 0,2 -47,84 -104,182 -163,281 -167,293 -121,338 45,46 65,41 277,-66 98,-49 182,-89 187,-89 5,0 35,37 67,83 112,161 246,337 267,352 32,22 74,18 102,-10 z M 7324,6908 c 263,-417 510,-968 666,-1484 245,-807 301,-1531 170,-2169 -86,-417 -287,-871 -595,-1340 -132,-202 -219,-310 -390,-484 -403,-412 -842,-703 -1298,-860 -160,-55 -210,-62 -431,-62 -154,-1 -226,4 -371,26 -370,53 -628,122 -955,255 -524,212 -651,278 -910,476 -347,264 -635,704 -770,1174 -91,315 -121,526 -127,900 -5,280 -3,304 21,475 43,293 144,816 161,833 2,3 8,-6 13,-19 5,-13 37,-103 72,-199 63,-176 86,-218 113,-207 8,3 83,140 167,304 293,571 579,1098 590,1086 4,-4 26,-84 50,-178 43,-174 270,-1011 335,-1235 20,-69 47,-149 60,-178 40,-87 98,-91 153,-10 32,48 214,371 497,883 103,187 230,417 282,510 128,230 366,634 375,635 9,0 76,-173 252,-649 204,-549 224,-599 247,-612 41,-21 65,12 179,244 103,211 488,1083 526,1195 10,28 22,52 25,52 14,0 141,-144 304,-343 241,-296 256,-317 289,-399 16,-40 43,-50 65,-24 6,7 20,71 31,142 27,176 150,1229 150,1282 0,23 3,42 8,42 4,0 25,-28 46,-62 z"
                id="path2" />
            <path
                d="m 4427,8437 c -32,-45 -59,-86 -60,-92 -2,-9 87,-64 104,-65 3,0 10,54 15,120 5,66 7,120 4,120 -3,0 -31,-37 -63,-83 z"
                id="path4" />
            <path d="m 4010,8325 c 0,-10 62,-105 69,-105 4,0 15,13 24,30 l 18,29 -50,26 c -51,25 -61,29 -61,20 z"
                id="path6" />
            <path
                d="m 4222,8141 c -23,-32 -45,-66 -48,-75 -3,-9 27,-77 77,-168 45,-84 84,-155 86,-157 2,-3 24,2 50,10 58,18 59,22 68,216 l 6,148 -93,43 c -51,23 -96,42 -99,42 -3,0 -25,-27 -47,-59 z"
                id="path8" />
            <path
                d="m 4616,7984 c -3,-26 -6,-72 -6,-104 v -57 l 111,34 c 121,36 129,40 129,54 0,7 -210,119 -223,119 -3,0 -7,-21 -11,-46 z"
                id="path10" />
            <path
                d="m 3941,7725 c -62,-91 -108,-165 -102,-165 5,0 84,27 175,61 l 165,61 -40,72 c -22,39 -47,86 -56,104 -9,17 -20,32 -24,32 -4,0 -57,-74 -118,-165 z"
                id="path12" />
            <path d="m 4421,7594 c 0,-11 3,-14 6,-6 3,7 2,16 -1,19 -3,4 -6,-2 -5,-13 z" id="path14"
                style="display:inline" />
        </g>
    </g>
</svg>